<svg height="512pt" viewBox="0 -31 512 512" width="512pt" xmlns="http://www.w3.org/2000/svg"><path d="m256 120c-57.890625 0-105 47.109375-105 105s47.109375 105 105 105 105-47.109375 105-105-47.109375-105-105-105zm15 180h-30v-90h30zm0-120h-30v-30h30zm0 0"/><path d="m256 0c-140.609375 0-256 100.929688-256 225 0 59.765625 28.070312 116.863281 75.808594 158.980469l-67.019532 66.019531h247.210938c140.609375 0 256-100.929688 256-225s-115.390625-225-256-225zm0 360c-74.441406 0-135-60.558594-135-135s60.558594-135 135-135 135 60.558594 135 135-60.558594 135-135 135zm0 0"/></svg>